<mxfile host="Electron" modified="2024-05-17T08:55:22.657Z" agent="Mozilla/5.0 (Windows NT 10.0; Win64; x64) AppleWebKit/537.36 (KHTML, like Gecko) draw.io/22.1.2 Chrome/114.0.5735.289 Electron/25.9.4 Safari/537.36" etag="a8R0a40KUuNgSJQsYCa0" version="22.1.2" type="device">
  <diagram name="Crossy Road Activity Diagram" id="mzTvzYQNDdbLBxiP-pPE">
    <mxGraphModel dx="1886" dy="606" grid="1" gridSize="10" guides="1" tooltips="1" connect="1" arrows="1" fold="1" page="1" pageScale="1" pageWidth="850" pageHeight="1100" math="0" shadow="0">
      <root>
        <mxCell id="0" />
        <mxCell id="1" parent="0" />
        <mxCell id="2" value="START" style="ellipse;whiteSpace=wrap;html=1;fillColor=#a9dc76;" parent="1" vertex="1" connectable="0">
          <mxGeometry x="-840" y="80" width="80" height="80" as="geometry" />
        </mxCell>
        <mxCell id="_idzlGcs4PoQHOygjkDY-2" style="edgeStyle=orthogonalEdgeStyle;rounded=0;orthogonalLoop=1;jettySize=auto;html=1;exitX=0;exitY=0.5;exitDx=0;exitDy=0;endArrow=none;endFill=0;startArrow=classic;startFill=1;" parent="1" source="_idzlGcs4PoQHOygjkDY-3" edge="1">
          <mxGeometry relative="1" as="geometry">
            <mxPoint x="-760" y="120" as="targetPoint" />
            <mxPoint x="-690" y="280.0000000000001" as="sourcePoint" />
          </mxGeometry>
        </mxCell>
        <mxCell id="_idzlGcs4PoQHOygjkDY-3" value="En vie" style="ellipse;whiteSpace=wrap;html=1;" parent="1" vertex="1">
          <mxGeometry x="-680" y="80" width="120" height="80" as="geometry" />
        </mxCell>
        <mxCell id="1PLO_ZK2p28x47EVe6iC-4" value="" style="edgeStyle=orthogonalEdgeStyle;rounded=0;orthogonalLoop=1;jettySize=auto;html=1;exitX=1;exitY=0;exitDx=0;exitDy=0;entryX=0;entryY=0;entryDx=0;entryDy=0;" parent="1" source="_idzlGcs4PoQHOygjkDY-3" target="1PLO_ZK2p28x47EVe6iC-2" edge="1">
          <mxGeometry relative="1" as="geometry">
            <mxPoint x="-560" y="120" as="sourcePoint" />
            <mxPoint x="-360" y="399.9999999999999" as="targetPoint" />
            <Array as="points" />
          </mxGeometry>
        </mxCell>
        <mxCell id="1PLO_ZK2p28x47EVe6iC-5" value="Collision mortelle&amp;nbsp;" style="edgeLabel;html=1;align=center;verticalAlign=middle;resizable=0;points=[];" parent="1PLO_ZK2p28x47EVe6iC-4" vertex="1" connectable="0">
          <mxGeometry x="-0.155" y="2" relative="1" as="geometry">
            <mxPoint as="offset" />
          </mxGeometry>
        </mxCell>
        <mxCell id="1PLO_ZK2p28x47EVe6iC-11" style="edgeStyle=orthogonalEdgeStyle;rounded=0;orthogonalLoop=1;jettySize=auto;html=1;exitX=1;exitY=0.5;exitDx=0;exitDy=0;" parent="1" source="1PLO_ZK2p28x47EVe6iC-2" edge="1">
          <mxGeometry relative="1" as="geometry">
            <mxPoint x="-200" y="119.89473684210532" as="targetPoint" />
          </mxGeometry>
        </mxCell>
        <mxCell id="1PLO_ZK2p28x47EVe6iC-2" value="Mort" style="ellipse;whiteSpace=wrap;html=1;" parent="1" vertex="1">
          <mxGeometry x="-400" y="80" width="120" height="80" as="geometry" />
        </mxCell>
        <mxCell id="1PLO_ZK2p28x47EVe6iC-7" value="" style="edgeStyle=orthogonalEdgeStyle;rounded=0;orthogonalLoop=1;jettySize=auto;html=1;exitX=1;exitY=1;exitDx=0;exitDy=0;entryX=0;entryY=1;entryDx=0;entryDy=0;" parent="1" source="_idzlGcs4PoQHOygjkDY-3" target="1PLO_ZK2p28x47EVe6iC-2" edge="1">
          <mxGeometry relative="1" as="geometry">
            <mxPoint x="-568" y="102" as="sourcePoint" />
            <mxPoint x="-372" y="102" as="targetPoint" />
            <Array as="points" />
          </mxGeometry>
        </mxCell>
        <mxCell id="1PLO_ZK2p28x47EVe6iC-8" value="Chute" style="edgeLabel;html=1;align=center;verticalAlign=middle;resizable=0;points=[];" parent="1PLO_ZK2p28x47EVe6iC-7" vertex="1" connectable="0">
          <mxGeometry x="-0.155" y="2" relative="1" as="geometry">
            <mxPoint as="offset" />
          </mxGeometry>
        </mxCell>
        <mxCell id="1PLO_ZK2p28x47EVe6iC-10" value="END" style="ellipse;whiteSpace=wrap;html=1;fillColor=#647687;fontColor=#ffffff;strokeColor=#314354;" parent="1" vertex="1" connectable="0">
          <mxGeometry x="-200" y="80" width="80" height="80" as="geometry" />
        </mxCell>
        <mxCell id="1PLO_ZK2p28x47EVe6iC-12" value="START" style="ellipse;whiteSpace=wrap;html=1;fillColor=#a9dc76;" parent="1" vertex="1" connectable="0">
          <mxGeometry x="-840" y="280" width="80" height="80" as="geometry" />
        </mxCell>
        <mxCell id="1PLO_ZK2p28x47EVe6iC-13" style="edgeStyle=orthogonalEdgeStyle;rounded=0;orthogonalLoop=1;jettySize=auto;html=1;exitX=0;exitY=0.5;exitDx=0;exitDy=0;endArrow=none;endFill=0;startArrow=classic;startFill=1;" parent="1" source="1PLO_ZK2p28x47EVe6iC-19" edge="1">
          <mxGeometry relative="1" as="geometry">
            <mxPoint x="-760" y="320" as="targetPoint" />
            <mxPoint x="-690" y="480.0000000000001" as="sourcePoint" />
          </mxGeometry>
        </mxCell>
        <mxCell id="1PLO_ZK2p28x47EVe6iC-19" value="En attente" style="ellipse;whiteSpace=wrap;html=1;" parent="1" vertex="1">
          <mxGeometry x="-680" y="280" width="120" height="80" as="geometry" />
        </mxCell>
        <mxCell id="1PLO_ZK2p28x47EVe6iC-20" value="" style="edgeStyle=orthogonalEdgeStyle;rounded=0;orthogonalLoop=1;jettySize=auto;html=1;exitX=1;exitY=0;exitDx=0;exitDy=0;entryX=0;entryY=0;entryDx=0;entryDy=0;" parent="1" source="1PLO_ZK2p28x47EVe6iC-19" target="1PLO_ZK2p28x47EVe6iC-23" edge="1">
          <mxGeometry relative="1" as="geometry">
            <mxPoint x="-560" y="320" as="sourcePoint" />
            <mxPoint x="-360" y="599.9999999999999" as="targetPoint" />
            <Array as="points" />
          </mxGeometry>
        </mxCell>
        <mxCell id="1PLO_ZK2p28x47EVe6iC-21" value="Temps écoulé" style="edgeLabel;html=1;align=center;verticalAlign=middle;resizable=0;points=[];" parent="1PLO_ZK2p28x47EVe6iC-20" vertex="1" connectable="0">
          <mxGeometry x="-0.155" y="2" relative="1" as="geometry">
            <mxPoint as="offset" />
          </mxGeometry>
        </mxCell>
        <mxCell id="1PLO_ZK2p28x47EVe6iC-22" style="edgeStyle=orthogonalEdgeStyle;rounded=0;orthogonalLoop=1;jettySize=auto;html=1;exitX=1;exitY=0.5;exitDx=0;exitDy=0;" parent="1" source="1PLO_ZK2p28x47EVe6iC-23" edge="1">
          <mxGeometry relative="1" as="geometry">
            <mxPoint x="-200" y="319.8947368421053" as="targetPoint" />
          </mxGeometry>
        </mxCell>
        <mxCell id="1PLO_ZK2p28x47EVe6iC-23" value="Chasse" style="ellipse;whiteSpace=wrap;html=1;" parent="1" vertex="1">
          <mxGeometry x="-400" y="280" width="120" height="80" as="geometry" />
        </mxCell>
        <mxCell id="1PLO_ZK2p28x47EVe6iC-24" value="" style="edgeStyle=orthogonalEdgeStyle;rounded=0;orthogonalLoop=1;jettySize=auto;html=1;exitX=1;exitY=1;exitDx=0;exitDy=0;entryX=0;entryY=1;entryDx=0;entryDy=0;" parent="1" source="1PLO_ZK2p28x47EVe6iC-19" target="1PLO_ZK2p28x47EVe6iC-23" edge="1">
          <mxGeometry relative="1" as="geometry">
            <mxPoint x="-568" y="302" as="sourcePoint" />
            <mxPoint x="-372" y="302" as="targetPoint" />
            <Array as="points" />
          </mxGeometry>
        </mxCell>
        <mxCell id="1PLO_ZK2p28x47EVe6iC-25" value="Player recule de 3 pas" style="edgeLabel;html=1;align=center;verticalAlign=middle;resizable=0;points=[];" parent="1PLO_ZK2p28x47EVe6iC-24" vertex="1" connectable="0">
          <mxGeometry x="-0.155" y="2" relative="1" as="geometry">
            <mxPoint as="offset" />
          </mxGeometry>
        </mxCell>
        <mxCell id="1PLO_ZK2p28x47EVe6iC-26" value="END" style="ellipse;whiteSpace=wrap;html=1;fillColor=#647687;fontColor=#ffffff;strokeColor=#314354;" parent="1" vertex="1" connectable="0">
          <mxGeometry x="-200" y="280" width="80" height="80" as="geometry" />
        </mxCell>
        <mxCell id="1PLO_ZK2p28x47EVe6iC-27" value="Player" style="edgeLabel;html=1;align=center;verticalAlign=middle;resizable=0;points=[];fontSize=20;" parent="1" vertex="1" connectable="0">
          <mxGeometry x="-799.9983299709122" y="39.99572875253651" as="geometry">
            <mxPoint x="-4" y="1" as="offset" />
          </mxGeometry>
        </mxCell>
        <mxCell id="1PLO_ZK2p28x47EVe6iC-28" value="Eagle" style="edgeLabel;html=1;align=center;verticalAlign=middle;resizable=0;points=[];fontSize=20;" parent="1" vertex="1" connectable="0">
          <mxGeometry x="-799.9983299709122" y="239.9957287525365" as="geometry">
            <mxPoint x="-4" y="1" as="offset" />
          </mxGeometry>
        </mxCell>
        <mxCell id="1PLO_ZK2p28x47EVe6iC-29" value="START" style="ellipse;whiteSpace=wrap;html=1;fillColor=#a9dc76;" parent="1" vertex="1" connectable="0">
          <mxGeometry x="-840" y="480" width="80" height="80" as="geometry" />
        </mxCell>
        <mxCell id="1PLO_ZK2p28x47EVe6iC-30" style="edgeStyle=orthogonalEdgeStyle;rounded=0;orthogonalLoop=1;jettySize=auto;html=1;exitX=0;exitY=0.5;exitDx=0;exitDy=0;endArrow=none;endFill=0;startArrow=classic;startFill=1;" parent="1" source="1PLO_ZK2p28x47EVe6iC-31" edge="1">
          <mxGeometry relative="1" as="geometry">
            <mxPoint x="-760" y="520" as="targetPoint" />
            <mxPoint x="-690" y="680.0000000000001" as="sourcePoint" />
          </mxGeometry>
        </mxCell>
        <mxCell id="1PLO_ZK2p28x47EVe6iC-31" value="En route" style="ellipse;whiteSpace=wrap;html=1;" parent="1" vertex="1">
          <mxGeometry x="-680" y="480" width="120" height="80" as="geometry" />
        </mxCell>
        <mxCell id="1PLO_ZK2p28x47EVe6iC-32" value="" style="edgeStyle=orthogonalEdgeStyle;rounded=0;orthogonalLoop=1;jettySize=auto;html=1;exitX=1;exitY=0;exitDx=0;exitDy=0;entryX=0;entryY=0;entryDx=0;entryDy=0;" parent="1" source="1PLO_ZK2p28x47EVe6iC-31" target="1PLO_ZK2p28x47EVe6iC-35" edge="1">
          <mxGeometry relative="1" as="geometry">
            <mxPoint x="-560" y="520" as="sourcePoint" />
            <mxPoint x="-360" y="799.9999999999999" as="targetPoint" />
            <Array as="points" />
          </mxGeometry>
        </mxCell>
        <mxCell id="1PLO_ZK2p28x47EVe6iC-33" value="distance parcourue maximum" style="edgeLabel;html=1;align=center;verticalAlign=middle;resizable=0;points=[];" parent="1PLO_ZK2p28x47EVe6iC-32" vertex="1" connectable="0">
          <mxGeometry x="-0.155" y="2" relative="1" as="geometry">
            <mxPoint as="offset" />
          </mxGeometry>
        </mxCell>
        <mxCell id="1PLO_ZK2p28x47EVe6iC-34" style="edgeStyle=orthogonalEdgeStyle;rounded=0;orthogonalLoop=1;jettySize=auto;html=1;exitX=1;exitY=0.5;exitDx=0;exitDy=0;" parent="1" source="1PLO_ZK2p28x47EVe6iC-35" edge="1">
          <mxGeometry relative="1" as="geometry">
            <mxPoint x="-200" y="519.8947368421053" as="targetPoint" />
          </mxGeometry>
        </mxCell>
        <mxCell id="1PLO_ZK2p28x47EVe6iC-35" value="Destruction" style="ellipse;whiteSpace=wrap;html=1;" parent="1" vertex="1">
          <mxGeometry x="-400" y="480" width="120" height="80" as="geometry" />
        </mxCell>
        <mxCell id="1PLO_ZK2p28x47EVe6iC-38" value="END" style="ellipse;whiteSpace=wrap;html=1;fillColor=#647687;fontColor=#ffffff;strokeColor=#314354;" parent="1" vertex="1" connectable="0">
          <mxGeometry x="-200" y="480" width="80" height="80" as="geometry" />
        </mxCell>
        <mxCell id="1PLO_ZK2p28x47EVe6iC-39" value="MovingObject" style="edgeLabel;html=1;align=center;verticalAlign=middle;resizable=0;points=[];fontSize=20;" parent="1" vertex="1" connectable="0">
          <mxGeometry x="-779.9983299709122" y="439.9957287525365" as="geometry">
            <mxPoint x="-4" y="1" as="offset" />
          </mxGeometry>
        </mxCell>
        <mxCell id="1PLO_ZK2p28x47EVe6iC-51" value="START" style="ellipse;whiteSpace=wrap;html=1;fillColor=#a9dc76;" parent="1" vertex="1" connectable="0">
          <mxGeometry x="-840" y="680" width="80" height="80" as="geometry" />
        </mxCell>
        <mxCell id="1PLO_ZK2p28x47EVe6iC-52" style="edgeStyle=orthogonalEdgeStyle;rounded=0;orthogonalLoop=1;jettySize=auto;html=1;exitX=0;exitY=0.5;exitDx=0;exitDy=0;endArrow=none;endFill=0;startArrow=classic;startFill=1;" parent="1" source="1PLO_ZK2p28x47EVe6iC-53" edge="1">
          <mxGeometry relative="1" as="geometry">
            <mxPoint x="-760" y="720" as="targetPoint" />
            <mxPoint x="-690" y="880.0000000000001" as="sourcePoint" />
          </mxGeometry>
        </mxCell>
        <mxCell id="1PLO_ZK2p28x47EVe6iC-53" value="En attente" style="ellipse;whiteSpace=wrap;html=1;" parent="1" vertex="1">
          <mxGeometry x="-680" y="680" width="120" height="80" as="geometry" />
        </mxCell>
        <mxCell id="1PLO_ZK2p28x47EVe6iC-54" value="" style="edgeStyle=orthogonalEdgeStyle;rounded=0;orthogonalLoop=1;jettySize=auto;html=1;exitX=1;exitY=0;exitDx=0;exitDy=0;entryX=0;entryY=0;entryDx=0;entryDy=0;" parent="1" source="1PLO_ZK2p28x47EVe6iC-53" target="1PLO_ZK2p28x47EVe6iC-57" edge="1">
          <mxGeometry relative="1" as="geometry">
            <mxPoint x="-560" y="720" as="sourcePoint" />
            <mxPoint x="-360" y="999.9999999999999" as="targetPoint" />
            <Array as="points" />
          </mxGeometry>
        </mxCell>
        <mxCell id="1PLO_ZK2p28x47EVe6iC-55" value="Collision avec le joueur" style="edgeLabel;html=1;align=center;verticalAlign=middle;resizable=0;points=[];" parent="1PLO_ZK2p28x47EVe6iC-54" vertex="1" connectable="0">
          <mxGeometry x="-0.155" y="2" relative="1" as="geometry">
            <mxPoint as="offset" />
          </mxGeometry>
        </mxCell>
        <mxCell id="1PLO_ZK2p28x47EVe6iC-56" style="edgeStyle=orthogonalEdgeStyle;rounded=0;orthogonalLoop=1;jettySize=auto;html=1;exitX=1;exitY=0.5;exitDx=0;exitDy=0;" parent="1" source="1PLO_ZK2p28x47EVe6iC-57" edge="1">
          <mxGeometry relative="1" as="geometry">
            <mxPoint x="-200" y="719.8947368421053" as="targetPoint" />
          </mxGeometry>
        </mxCell>
        <mxCell id="1PLO_ZK2p28x47EVe6iC-57" value="Détruite" style="ellipse;whiteSpace=wrap;html=1;" parent="1" vertex="1">
          <mxGeometry x="-400" y="680" width="120" height="80" as="geometry" />
        </mxCell>
        <mxCell id="1PLO_ZK2p28x47EVe6iC-58" value="" style="edgeStyle=orthogonalEdgeStyle;rounded=0;orthogonalLoop=1;jettySize=auto;html=1;exitX=1;exitY=1;exitDx=0;exitDy=0;entryX=0;entryY=1;entryDx=0;entryDy=0;" parent="1" source="1PLO_ZK2p28x47EVe6iC-53" target="1PLO_ZK2p28x47EVe6iC-57" edge="1">
          <mxGeometry relative="1" as="geometry">
            <mxPoint x="-568" y="702" as="sourcePoint" />
            <mxPoint x="-372" y="702" as="targetPoint" />
            <Array as="points" />
          </mxGeometry>
        </mxCell>
        <mxCell id="1PLO_ZK2p28x47EVe6iC-59" value="Terrain parent détruit" style="edgeLabel;html=1;align=center;verticalAlign=middle;resizable=0;points=[];" parent="1PLO_ZK2p28x47EVe6iC-58" vertex="1" connectable="0">
          <mxGeometry x="-0.155" y="2" relative="1" as="geometry">
            <mxPoint as="offset" />
          </mxGeometry>
        </mxCell>
        <mxCell id="1PLO_ZK2p28x47EVe6iC-60" value="END" style="ellipse;whiteSpace=wrap;html=1;fillColor=#647687;fontColor=#ffffff;strokeColor=#314354;" parent="1" vertex="1" connectable="0">
          <mxGeometry x="-200" y="680" width="80" height="80" as="geometry" />
        </mxCell>
        <mxCell id="1PLO_ZK2p28x47EVe6iC-61" value="Coins" style="edgeLabel;html=1;align=center;verticalAlign=middle;resizable=0;points=[];fontSize=20;" parent="1" vertex="1" connectable="0">
          <mxGeometry x="-799.9983299709122" y="639.9957287525365" as="geometry">
            <mxPoint x="-4" y="1" as="offset" />
          </mxGeometry>
        </mxCell>
      </root>
    </mxGraphModel>
  </diagram>
</mxfile>
